<svg width="192" height="29" viewBox="0 0 192 29" fill="none" xmlns="http://www.w3.org/2000/svg">
<path d="M5.3718 27.7662C3.67544 26.9281 2.3749 25.699 1.41363 24.1906C0.452362 22.6822 0 20.9503 0 18.9949C0 17.0954 0.452362 15.3635 1.41363 13.8551C2.3749 12.3467 3.67544 11.1176 5.3718 10.2796C7.06816 9.44157 8.93416 8.99463 11.0829 8.99463C13.1751 8.99463 15.0976 9.44157 16.794 10.2796C18.4903 11.1176 19.7909 12.2908 20.7521 13.7992C21.7134 15.3077 22.1658 17.0396 22.1658 18.9391C22.1658 20.8944 21.7134 22.5705 20.7521 24.1348C19.7909 25.6432 18.4903 26.8723 16.794 27.7103C15.0976 28.5483 13.2316 28.9952 11.0829 28.9952C8.93416 29.0511 7.06816 28.6042 5.3718 27.7662ZM14.0232 22.4029C14.8149 21.5648 15.1541 20.4475 15.1541 18.9949C15.1541 17.5424 14.7583 16.425 14.0232 15.6429C13.2316 14.8607 12.2703 14.4138 11.0829 14.4138C9.89543 14.4138 8.87761 14.8049 8.14252 15.6429C7.35089 16.4809 7.01162 17.5982 7.01162 18.9949C7.01162 20.4475 7.40743 21.5648 8.14252 22.4029C8.93416 23.2409 9.89543 23.6319 11.0829 23.6319C12.2703 23.6319 13.2316 23.2409 14.0232 22.4029Z" fill="#004F6D"/>
<path d="M41.9002 23.6319V28.7159H23.8622V24.6934L32.9095 14.3579H24.0884V9.32983H41.5044V13.2964L32.4571 23.6319H41.9002Z" fill="#004F6D"/>
<path d="M44.7274 6.20131C43.9358 5.53089 43.5965 4.63701 43.5965 3.63139C43.5965 2.62578 43.9923 1.7319 44.7274 1.06148C45.4625 0.335206 46.4803 0 47.7243 0C48.9683 0 49.9861 0.335206 50.7778 1.00562C51.5694 1.67603 51.9087 2.51404 51.9087 3.51966C51.9087 4.58114 51.5128 5.47503 50.7778 6.20131C49.9861 6.92758 48.9683 7.26279 47.7243 7.26279C46.4803 7.20692 45.4625 6.87172 44.7274 6.20131ZM44.3316 9.38576H51.1736V28.7718H44.3316V9.38576Z" fill="#004F6D"/>
<path d="M43.5965 3.63139C43.5965 4.63701 43.9358 5.53089 44.7274 6.20131C45.4625 6.87172 46.4803 7.20692 47.7243 7.26279C48.9683 7.26279 49.9861 6.92758 50.7778 6.20131C51.5128 5.47503 51.9087 4.58114 51.9087 3.51966C51.9087 2.51404 51.5694 1.67603 50.7778 1.00562C49.9861 0.335206 48.9683 0 47.7243 0C46.4803 0 45.4625 0.335206 44.7274 1.06148C43.9923 1.7319 43.5965 2.62578 43.5965 3.63139Z" fill="#E25416"/>
<path d="M192 27.7102C191.435 28.0455 190.699 28.3248 189.908 28.4924C189.06 28.66 188.211 28.7717 187.25 28.7717C184.706 28.7717 182.727 28.1572 181.369 26.984C180.012 25.8107 179.334 24.023 179.334 21.6207V15.3635H176.507V10.4472H179.334V5.58667H186.176V10.4472H190.643V15.3635H186.176V21.5648C186.176 22.2352 186.345 22.738 186.741 23.1291C187.137 23.5202 187.589 23.6878 188.211 23.6878C189.003 23.6878 189.682 23.5202 190.304 23.1291L192 27.7102Z" fill="#004F6D"/>
<path d="M160.448 27.4869C158.808 26.6489 157.507 25.4198 156.603 23.9114C155.698 22.4029 155.245 20.671 155.245 18.7157C155.245 16.8162 155.698 15.0843 156.603 13.5759C157.507 12.0674 158.808 10.8942 160.448 10.0562C162.087 9.21818 163.953 8.77124 166.046 8.77124C168.194 8.77124 170.004 9.21818 171.531 10.1679C173.057 11.1177 174.188 12.4026 174.81 14.0787L169.721 16.7603C168.873 15.0284 167.629 14.1345 165.989 14.1345C164.802 14.1345 163.84 14.5256 163.049 15.3636C162.257 16.1458 161.861 17.2631 161.861 18.7157C161.861 20.1682 162.257 21.2856 163.049 22.1236C163.84 22.9616 164.802 23.3527 165.989 23.3527C167.629 23.3527 168.873 22.4588 169.721 20.7269L174.81 23.4086C174.188 25.0846 173.057 26.3695 171.531 27.3193C170.004 28.269 168.138 28.716 166.046 28.716C163.953 28.7718 162.087 28.3249 160.448 27.4869Z" fill="#004F6D"/>
<path d="M67.3527 16.3692C68.7098 15.3078 70.1234 14.2463 71.4805 13.1848C71.0281 12.4585 70.1234 11.3412 68.7098 10.4473C65.5998 8.49191 61.5285 8.77125 58.5882 10.4473C56.2698 11.7881 55.1389 13.6876 54.9127 14.0787C53.2729 16.9838 52.9902 21.0621 55.1389 24.3024C57.118 27.3193 60.228 28.1573 61.1327 28.3808C63.1118 28.3808 65.0909 28.3808 67.1265 28.3808C71.8763 23.8555 76.6261 19.2744 81.3759 14.7491C81.7152 14.6373 83.1288 14.0787 84.599 14.7491C86.4085 15.5312 87.087 17.6542 86.9174 19.2744C86.7477 20.671 85.843 22.4588 84.1466 22.9058C82.2241 23.4086 79.7926 21.956 79.1141 19.2744C77.5874 20.9504 76.0607 22.6264 74.5339 24.2466C75.1559 24.9729 76.1738 26.0902 77.757 26.9841C78.6052 27.431 81.2063 28.8836 84.6555 28.3249C85.3341 28.2132 88.7268 27.6545 91.1017 24.6935C93.2504 22.0677 94.3248 17.8777 92.4588 14.2463C89.8012 9.10645 83.1288 9.21819 82.3372 9.27406C80.0754 9.38579 78.3225 10.1121 77.3047 10.6149C73.3465 14.6932 69.3318 18.7716 65.3736 22.8499C64.4689 22.8499 63.5076 22.8499 62.6029 22.8499C62.2636 22.6264 60.6238 21.3973 60.2845 19.2185C60.228 18.7716 59.9453 16.9838 61.1893 15.5871C61.3589 15.3636 62.3767 14.2463 63.96 14.2463C65.2605 14.2463 66.6176 15.0843 67.3527 16.3692Z" fill="#004F6D"/>
<path d="M95.1143 10.2237C97.263 10.2237 99.4118 10.2237 101.56 10.2237C101.56 11.0059 101.56 11.7321 101.56 12.5143C101.956 12.1232 102.578 11.6204 103.426 11.1735C104.275 10.6707 105.519 9.94437 107.102 9.83264C107.272 9.83264 110.777 9.5533 112.643 12.1232C113.265 12.9612 113.492 13.8551 113.548 14.4138C113.548 19.1067 113.548 23.7995 113.548 28.4924C111.399 28.4924 109.251 28.4924 107.102 28.4924C107.102 24.861 107.102 21.2296 107.102 17.5982C107.102 17.4306 107.045 16.4809 106.197 15.7546C105.519 15.1959 104.67 15.0842 103.879 15.3077C102.861 15.587 102.182 16.4809 102.013 17.5982C102.013 21.2296 102.013 24.861 102.013 28.4924C99.6945 28.4924 97.4327 28.4924 95.1143 28.4924C95.1143 27.7103 95.1143 26.984 95.1143 26.2018C95.6232 25.8666 96.3583 25.308 96.9803 24.3582C97.7719 23.0733 97.8285 21.8442 97.885 19.386C97.9416 17.1513 97.9416 16.0339 97.4327 14.8607C96.8107 13.464 95.7929 12.626 95.1143 12.1232C95.1143 11.3969 95.1143 10.8383 95.1143 10.2237Z" fill="#004F6D"/>
<path d="M115.244 9.94441C117.393 9.94441 119.542 9.94441 121.691 9.94441C121.691 10.7266 121.691 11.4528 121.691 12.235C122.086 11.8439 122.708 11.3411 123.557 10.8942C124.405 10.3914 125.649 9.66508 127.232 9.55334C127.402 9.55334 130.907 9.274 132.773 11.8439C133.395 12.6819 133.622 13.5758 133.678 14.1345C133.678 18.8274 133.678 23.5202 133.678 28.2131C131.529 28.2131 129.381 28.2131 127.232 28.2131C127.232 24.5817 127.232 20.9503 127.232 17.3189C127.232 17.1513 127.175 16.2016 126.327 15.4753C125.649 14.9166 124.801 14.8049 124.009 15.0284C122.991 15.3077 122.313 16.2016 122.143 17.3189C122.143 20.9503 122.143 24.5817 122.143 28.2131C119.825 28.2131 117.563 28.2131 115.244 28.2131C115.244 27.431 115.244 26.7047 115.244 25.9226C115.244 23.5202 115.244 21.0621 115.244 18.6598C115.244 16.3692 115.244 14.1345 115.244 11.8439C115.244 11.1176 115.244 10.559 115.244 9.94441Z" fill="#004F6D"/>
<path d="M153.469 20.3917H141.312C141.538 21.3973 142.047 22.1236 142.725 22.6823C143.461 23.1851 144.309 23.4644 145.383 23.4644C146.175 23.4644 146.91 23.3527 147.475 23.0733C148.041 22.794 148.663 22.4029 149.228 21.7884L152.338 25.4757C150.698 27.5428 148.323 28.6042 145.213 28.6042C143.234 28.6042 141.538 28.1573 140.068 27.3193C139.446 26.9282 138.824 26.5371 138.315 26.0343C138.145 25.8667 137.297 25.0846 136.619 23.7996C135.431 21.6208 135.375 19.4978 135.375 18.6598C135.375 17.8218 135.375 15.7547 136.562 13.5759C137.354 12.0674 138.371 11.1735 138.598 10.9501C138.993 10.6149 139.389 10.3355 139.842 10.0562C141.255 9.21818 142.839 8.77124 144.591 8.77124C146.288 8.77124 147.758 9.16231 149.115 9.94446C150.472 10.7266 151.547 11.8998 152.338 13.3524C153.13 14.8608 153.526 16.5927 153.526 18.6598C153.582 18.7715 153.526 19.3302 153.469 20.3917ZM142.33 14.4697C141.708 15.0843 141.312 15.8664 141.199 16.872H148.041C147.871 15.8664 147.475 15.0843 146.91 14.4697C146.288 13.8552 145.553 13.5759 144.648 13.5759C143.743 13.5759 142.952 13.8552 142.33 14.4697Z" fill="#004F6D"/>
</svg>
